<svg width="291" height="74" viewBox="0 0 291 74" fill="none" xmlns="http://www.w3.org/2000/svg">
<path d="M13.9205 27.5396C16.8359 28.6077 20.027 28.659 22.9753 27.6849C25.9235 26.7109 28.4554 24.7687 30.1598 22.1742C32.2477 19.7876 34.9942 18.0705 38.0546 17.2384C41.1151 16.4063 44.3531 16.4962 47.3627 17.4968C48.5177 17.88 49.7494 17.9738 50.9492 17.7699C52.149 17.566 53.2803 17.0707 54.2438 16.3275C60.9463 10.8094 69.5363 8.11972 78.1902 8.82965C81.4288 9.10312 84.689 8.96445 87.8926 8.41695C90.9872 7.80871 94.1929 8.13861 97.0986 9.36421C100.004 10.5898 102.478 12.6552 104.201 15.2956C105.137 16.7479 106.392 17.9676 107.87 18.8616C109.349 19.7556 111.012 20.3005 112.733 20.4546C121.61 21.0737 130.762 24.169 139.295 18.5973C141.319 17.2207 143.729 16.5223 146.176 16.6026C156.153 18.0471 162.69 11.925 170.122 7.10999C183.884 -1.90102 200.605 -3.89575 215.744 13.6448C216.591 14.6699 217.797 15.334 219.116 15.5019C221.861 15.9644 224.443 17.1157 226.622 18.8482C228.8 20.5806 230.503 22.8374 231.571 25.4072C232.091 26.7485 233.063 27.8668 234.318 28.5697C235.574 29.2727 237.036 29.5165 238.452 29.2592C242.252 28.9155 246.074 28.9155 249.874 29.2592C252.059 29.5534 254.115 30.4585 255.808 31.8702C257.5 33.2819 258.759 35.1428 259.439 37.2385C260.953 40.7466 262.948 41.228 266.32 40.9529C279.188 40.0587 288.133 45.9743 290.129 56.4298C290.679 59.4564 291.023 62.6207 286.069 63.9276C287.412 61.6344 287.977 58.9682 287.68 56.3274C287.382 53.6866 286.238 51.213 284.418 49.2761C282.557 47.3438 280.287 45.8527 277.775 44.9123C275.262 43.9719 272.571 43.6062 269.898 43.842C267.244 43.9662 264.6 44.2648 261.985 44.7362C259.921 44.7362 258.613 44.7362 257.856 42.0535C257.103 40.1101 255.956 38.3432 254.488 36.8636C253.019 35.3839 251.261 34.2235 249.323 33.455C247.384 32.6865 245.309 32.3265 243.225 32.3975C241.141 32.4686 239.094 32.9692 237.213 33.8679C233.36 36.0691 231.777 34.5558 230.882 31.3916C230.221 28.1442 228.52 25.2002 226.038 23.0038C223.555 20.8075 220.425 19.4782 217.12 19.2165C213.542 18.8725 213.198 16.3274 211.89 13.8511C208.801 10.3546 204.927 7.64001 200.585 5.93014C196.243 4.22028 191.557 3.5638 186.912 4.01463C182.409 4.63643 178.103 6.26405 174.315 8.77665C170.527 11.2892 167.353 14.6223 165.03 18.5286C164.123 20.0653 162.655 21.1898 160.934 21.6647C159.214 22.1395 157.376 21.9276 155.809 21.0736C152.433 19.7173 148.737 19.3594 145.163 20.0423C141.589 20.7252 138.286 22.4203 135.648 24.9258L135.166 25.2696C128.285 31.4604 121.404 36.1379 111.77 32.1482C110.586 31.8865 109.36 31.88 108.174 32.129C106.987 32.3781 105.867 32.8771 104.889 33.5928C102.889 34.9287 100.621 35.8117 98.2437 36.1801C95.8665 36.5484 93.4376 36.3931 91.1267 35.7252C88.3089 35.2304 85.4102 35.4919 82.7265 36.4829C80.0428 37.4738 77.6702 39.1587 75.8506 41.3657C75.56 41.6006 75.2842 41.8533 75.0249 42.1224C73.7175 43.9796 69.5887 44.5298 70.552 46.6622C71.0904 48.2617 71.9918 49.7151 73.1856 50.9084C74.3793 52.1018 75.833 53.0027 77.4332 53.5408C82.2181 55.3958 87.1734 56.7781 92.2278 57.668C93.6728 57.668 94.7736 57.6681 94.8424 59.7317C94.9112 61.7952 96.3563 61.864 98.0765 61.1761C99.7968 60.4882 100.072 61.1761 102.618 63.1021C103.9 63.9627 105.409 64.4223 106.953 64.4223C108.497 64.4223 110.007 63.9627 111.288 63.1021L125.051 56.2235C123.124 61.3137 125.051 62.6894 129.042 63.1021C133.395 64.4101 138.037 64.4101 142.391 63.1021C143.836 62.4143 144.111 63.8588 145.006 64.5467C148.393 67.0015 152.011 69.1209 155.809 70.875C156.794 71.2556 157.872 71.3211 158.895 71.0623C159.918 70.8035 160.836 70.2332 161.521 69.4305C163.951 67.4303 166.912 66.1828 170.041 65.8406C173.17 65.4985 176.331 66.0767 179.136 67.5044C180.716 67.9664 182.389 68.0129 183.992 67.6393C185.596 67.2658 187.075 66.4848 188.288 65.3721C195.169 60.2131 202.051 63.4461 208.932 65.3721C213.008 67.0593 217.517 67.3968 221.799 66.3351C222.212 66.3351 222.556 65.8536 222.9 65.9224C233.084 67.8484 243.544 62.4831 253.453 65.9224C256.185 67.5223 259.34 68.2542 262.498 68.0207C265.657 67.7873 268.669 66.5997 271.137 64.6154C271.882 63.8601 272.791 63.287 273.793 62.941C274.796 62.595 275.865 62.4853 276.917 62.6207C275.26 65.477 272.773 67.7626 269.787 69.1752C266.801 70.5878 263.457 71.0606 260.196 70.5311C253.079 67.751 245.245 67.3884 237.901 69.4993C234.736 70.5311 231.433 67.7108 227.786 68.3987C225.156 68.611 222.565 69.166 220.079 70.0496C218.719 70.758 217.197 71.0989 215.664 71.0385C214.131 70.9782 212.641 70.5187 211.34 69.7057C206.913 67.4202 201.831 66.7395 196.959 67.7797C188.839 69.0866 180.65 72.1819 172.186 68.6051C170.762 68.2695 169.273 68.3155 167.872 68.7381C166.471 69.1608 165.206 69.9454 164.204 71.0126C162.5 72.5886 160.264 73.4641 157.942 73.4641C155.621 73.4641 153.385 72.5886 151.681 71.0126C149.478 69.0304 146.779 67.6828 143.87 67.1135C140.962 66.5441 137.954 66.7744 135.166 67.7797C131.45 69.1554 128.285 65.5785 124.019 66.06C118.651 66.6791 113.078 66.06 107.641 66.8166C104.255 67.5245 100.743 67.3523 97.4426 66.3166C94.1416 65.2809 91.1616 63.4164 88.7872 60.901C87.0669 58.9062 84.108 59.4565 81.9061 58.4934C73.4381 55.7247 64.483 54.7639 55.6201 55.6732C43.0276 55.6732 32.0865 47.7627 19.3564 49.5512C11.7872 50.6518 7.58982 44.1171 2.08492 40.8154C0.0893926 39.646 0.433348 36.2755 1.12146 33.9368C1.80957 31.598 2.36007 30.0159 4.3556 30.7725C6.35113 31.5292 4.35562 33.3177 3.94275 34.4871C2.97939 37.2385 3.59868 38.6142 6.07588 40.609C11.8609 44.9836 19.0916 46.9995 26.3064 46.2495C30.3314 46.3529 34.3005 47.2165 38.0044 48.7945C42.9588 50.583 47.8444 54.2975 53.2805 49.4824C54.5191 48.3819 55.7578 49.9639 56.5147 51.0645C57.4077 52.1883 58.592 53.0456 59.9389 53.5429C61.2857 54.0402 62.7432 54.1584 64.1526 53.8848C67.2491 53.8848 68.9006 52.7842 68.8317 49.0697C69.1977 44.7242 71.1044 40.6522 74.2081 37.5876C77.3117 34.5229 81.4082 32.6671 85.7595 32.3546C96.15 33.18 105.577 28.7778 115.555 28.3651C117.481 28.3651 120.096 27.5395 119.821 25.476C119.546 23.4124 117 24.3067 115.486 24.5818C113.314 24.9161 111.091 24.6131 109.088 23.7096C107.085 22.806 105.387 21.3408 104.201 19.4916C101.531 15.5162 97.4338 12.72 92.7578 11.6827C88.0818 10.6454 83.1859 11.4465 79.0848 13.9199C76.4699 15.158 74.0616 17.3592 72.2036 12.8881C71.722 11.65 70.1392 11.9251 69.1071 12.4066C63.7929 13.7493 59.0008 16.6475 55.3448 20.7298C55.0424 21.3312 54.6139 21.8603 54.0882 22.281C53.5625 22.7016 52.9521 23.0039 52.2988 23.1672C51.6455 23.3304 50.9647 23.3509 50.3028 23.227C49.6409 23.1031 49.0136 22.8379 48.4637 22.4494C45.5188 21.0304 42.1909 20.6118 38.9862 21.2575C35.7814 21.9032 32.8755 23.5777 30.7104 26.0263C24.2422 32.6297 18.5996 32.7673 13.9205 27.5396Z" fill="#B3A155"/>
</svg>
