<svg width="830" height="321" viewBox="0 0 830 321" fill="none" xmlns="http://www.w3.org/2000/svg">
<g filter="url(#filter0_f_10_20700)">
<path d="M840 332.691V338.144L28 332.691L59.5 123.5L253.5 159.191L369.717 28L467.093 98.3328H541.678L584 92.6912H601.5L652 115.191L743 92.6912L847 159.191L840 332.691Z" fill="url(#paint0_linear_10_20700)"/>
</g>
<path d="M707.741 294.081C690.676 289.678 675.95 279.842 659.573 273.445C656.659 272.507 653.809 271.381 651.041 270.074C629.655 259.255 608.97 247.101 589.11 233.686C559.795 212.793 532.184 189.608 506.537 164.35C501.817 158.294 497.408 152.004 493.325 145.502C487.744 140.55 483.487 134.285 480.939 127.274C480.539 125.593 479.625 124.078 478.324 122.94C471.443 117.437 469.929 108.495 464.562 102.304C455.754 92.3302 455.479 89.166 441.648 91.9863C429.184 94.7517 416.492 96.3636 403.733 96.8013C391.237 96.6502 378.742 97.1554 366.299 98.3147C359.327 98.7712 352.578 100.961 346.666 104.684C340.754 108.408 335.866 113.548 332.444 119.638C324.669 133.396 316.48 147.153 308.085 160.498C306.09 163.662 304.782 168.408 299.277 168.064C298.52 168.064 297.557 169.509 296.938 170.403C284.928 187.352 271.082 202.924 255.651 216.834C246.594 225.798 236.334 233.46 225.168 239.602C214.585 245.261 204.642 252.041 195.51 259.825C187.552 267.435 180.039 275.496 173.009 283.969C159.411 296.714 144.797 308.332 129.313 318.706C116.377 328.13 108.188 329.987 87.545 339.342C72.0625 346.221 49.8364 357.227 23 371.603C47.428 360.391 73.714 353.787 97.6603 341.406C98.5548 340.924 100.069 339.48 100.55 340.855C101.651 344.088 103.028 341.75 103.647 340.855C108.272 336.545 113.663 333.139 119.542 330.813C127.709 327.115 135.309 322.274 142.112 316.436C147.621 311.747 153.362 307.339 159.315 303.229C167.289 298.047 174.613 291.927 181.128 285.001C188.26 276.244 196.737 268.675 206.245 262.577C208.584 261.132 214.295 253.634 213.126 264.847C215.593 265.851 217.619 267.705 218.837 270.074C219.365 271.249 219.691 272.505 219.8 273.789C229.021 268.355 238.31 263.127 247.669 257.899C248.839 257.211 250.421 255.698 251.591 257.899C254.206 262.095 257.371 259.55 259.986 258.449C263.39 257.151 266.589 255.367 269.482 253.153C273.955 249.576 278.565 251.846 283.244 252.121C285.928 252.121 285.102 254.529 283.932 255.973C280.729 260.241 277.16 264.223 273.267 267.873C272.097 268.836 270.032 269.937 270.652 271.312C272.991 276.403 269.551 280.53 268.519 285.07C266.982 291.567 263.236 297.329 257.922 301.372H259.023C261.103 300.861 263.035 299.872 264.665 298.483C266.452 296.397 267.956 294.084 269.138 291.604C269.214 291.439 269.333 291.297 269.482 291.192C274.849 287.271 280.63 283.832 285.584 279.498C302.167 265.399 317.353 249.735 330.931 232.723C334.302 228.39 337.812 224.056 340.977 219.654C337.955 227.749 334.392 235.631 330.311 243.248C329.22 246.039 328.592 248.99 328.453 251.983C327.696 256.248 332.651 251.364 331.206 253.841C328.316 259.068 331.206 263.54 331.894 268.423C332.756 274.459 333.101 280.557 332.926 286.652C333.627 291.352 333.393 296.144 332.238 300.753C332.238 303.023 331.137 305.568 333.133 307.632C335.403 306.806 335.541 304.88 336.16 303.367C341.665 290.022 347.124 276.632 352.537 263.196C353.019 262.095 352.537 260.031 354.464 260.169C355.21 260.341 355.875 260.761 356.351 261.361C356.826 261.962 357.083 262.705 357.079 263.471C357.39 264.968 357.39 266.513 357.079 268.011C355.186 274.082 354.371 280.437 354.67 286.789C355.014 286.445 355.427 286.17 355.771 285.758C356.087 285.324 356.363 284.864 356.597 284.382C356.597 283.9 356.941 283.419 357.01 283.006C356.972 283.303 356.972 283.604 357.01 283.9C357.022 283.252 357.187 282.616 357.492 282.043C359.179 273.841 362.078 265.936 366.093 258.587C367.199 264.281 367.844 270.055 368.02 275.852C368.02 277.159 368.02 279.223 370.153 279.223C372.286 279.223 371.804 277.366 372.217 276.196C373.8 270.556 375.314 264.915 377.24 257.968C378.64 264.629 380.956 271.064 384.122 277.09C386.606 282.488 387.649 288.436 387.149 294.356C387.149 295.869 387.149 297.864 388.938 298.07C390.728 298.277 391.347 296.144 391.691 294.493C391.952 293.387 392.113 292.259 392.173 291.123C393.42 282.531 396.094 274.208 400.086 266.497C403.251 275.99 408.756 283.35 410.82 292.361C412.265 298.621 413.642 298.689 418.527 294.218C420.729 296.626 420.66 299.859 421.761 302.61C422.243 303.848 422.794 305.362 424.376 305.293C425.959 305.224 426.372 303.642 426.372 302.335C426.372 298.345 430.707 294.837 427.61 290.435C427.129 289.816 427.61 288.165 429.881 287.477C433.71 297.294 438.027 306.913 442.818 316.299C442.889 316.847 442.889 317.402 442.818 317.95C442.818 318.5 442.818 319.05 442.818 319.669C443.783 320.291 444.604 321.112 445.226 322.077C445.26 321.734 445.26 321.388 445.226 321.045C445.792 322.035 446.436 322.978 447.153 323.865C452.451 328.199 451.763 338.517 461.328 338.654C461.744 337.484 462.089 336.29 462.36 335.077C461.173 333.856 460.258 332.397 459.677 330.796C459.096 329.195 458.861 327.489 458.988 325.791C458.933 314.735 457.241 303.747 453.965 293.186C453.081 290.05 452.596 286.814 452.52 283.556C455.066 285.207 456.098 288.509 458.713 287.202C461.328 285.895 460.021 282.8 459.745 280.323C459.264 276.54 458.369 272.826 457.75 269.042C457.13 265.259 456.167 260.031 455.685 255.285C455.685 253.841 455.685 250.677 458.507 252.052C463.117 254.047 462.154 251.227 462.016 248.682C461.878 246.137 459.952 243.935 462.016 243.935C468.553 243.935 466.076 239.189 465.801 236.644C465.637 225.411 464.764 214.199 463.186 203.076C464.263 203.309 465.245 203.86 466.006 204.657C466.766 205.454 467.27 206.461 467.452 207.547C469.585 217.728 475.778 226.257 478.6 236.094C479.11 237.96 480.317 239.56 481.971 240.565C486.872 244.378 490.691 249.405 493.05 255.148C495.786 262.038 499.57 268.464 504.266 274.201L506.95 276.953C506.98 276.564 506.98 276.173 506.95 275.784C506.95 274.133 506.95 272.482 506.606 270.762C506.641 270.604 506.641 270.439 506.606 270.281C501.767 260.402 498.184 249.957 495.94 239.189C493.256 230.385 501.307 223.162 499.38 214.495L500.481 214.082C501.74 216.849 503.489 219.366 505.642 221.511C506.743 222.337 507.913 223.299 509.289 222.543C510.666 221.786 510.184 220.204 509.84 218.966C509.496 217.728 508.67 214.839 507.844 212.087C514.106 215.389 515.138 221.442 518.51 225.845C525.507 233.131 531.396 241.405 535.988 250.401C539.635 259.344 543.97 268.08 548.168 276.815C549.553 280.181 551.705 283.178 554.453 285.566C557.2 287.954 560.467 289.669 563.994 290.573C552.789 281.058 544.967 268.171 541.7 253.841C544.582 255.708 547.361 257.728 550.026 259.894C551.333 260.857 552.984 262.852 554.498 261.476C556.012 260.1 553.948 258.518 552.984 257.28C549.75 252.744 547.242 247.731 545.553 242.422C548.512 244.142 550.507 245.449 552.434 246.481C554.361 247.512 556.012 249.232 557.595 247.65C559.178 246.068 556.631 244.486 555.943 242.904C555.255 241.322 554.017 241.115 554.911 239.258C566.038 245.251 576.548 252.324 586.289 260.375C592.358 265.902 599.503 270.117 607.277 272.757C609.708 273.305 611.987 274.385 613.95 275.92C615.913 277.454 617.512 279.404 618.631 281.63C618.905 282.349 619.319 283.007 619.848 283.566C620.377 284.125 621.012 284.574 621.715 284.887C622.418 285.2 623.176 285.371 623.946 285.391C624.716 285.41 625.482 285.278 626.2 285.001C628.111 284.355 630.172 284.291 632.12 284.818C634.068 285.344 635.815 286.438 637.141 287.959C638.543 289.229 640.213 290.17 642.026 290.71C652.348 294.7 662.67 298.552 673.129 302.404C674.071 302.982 675.155 303.287 676.26 303.287C677.365 303.287 678.449 302.982 679.391 302.404C673.611 299.928 668.381 297.933 663.427 295.525C655.238 291.329 645.605 290.641 638.035 285.345C636.411 283.898 634.466 282.857 632.361 282.307C630.255 281.757 628.05 281.714 625.924 282.181C624.067 282.662 622.14 282.181 621.383 280.736C618.218 272.757 610.717 271.656 603.974 269.18C598.764 267.889 594.195 264.763 591.106 260.375C590.211 258.931 589.317 256.867 591.106 255.629C592.895 254.391 594.822 255.629 596.06 257.074C597.299 258.518 596.748 258.862 598.744 259.344C610.924 262.164 622.415 267.185 634.732 269.799C644.848 271.863 653.38 279.154 663.358 283.006C674.479 287.931 685.987 291.934 697.763 294.975C700.839 295.519 703.841 296.42 706.709 297.658L707.672 297.107L708.773 296.351L709.324 296.007C709.976 295.47 710.596 294.895 711.182 294.287V293.943L707.741 294.081ZM599.432 255.904C594.34 253.153 589.592 249.026 583.055 252.878C581.128 253.978 579.202 251.571 577.963 250.057C571.082 241.872 560.829 240.29 552.09 235.887C549.544 234.58 549.062 235.887 550.507 241.322C547.136 243.523 542.869 231.141 540.048 242.972C537.225 237.274 532.832 232.501 527.387 229.215L541.149 248.819C534.268 241.941 526.217 236.3 523.946 226.051C522.936 223.322 521.17 220.936 518.854 219.172C515.345 215.664 511.973 212.294 507.982 208.992C506.743 207.891 505.573 205.621 503.922 206.447C502.271 207.272 503.922 209.405 503.922 210.987C503.922 212.569 503.922 212.706 503.922 214.976C499.793 208.923 496.353 203.97 492.499 198.468C491.536 200.944 492.843 202.595 493.256 204.177C495.665 210.892 495.419 218.273 492.568 224.813C490.504 229.146 492.568 234.237 492.981 238.983C493.318 241.263 493.318 243.581 492.981 245.862C491.88 243.798 490.917 241.734 489.678 239.808C488.44 237.882 488.646 234.924 484.93 237.401C483.141 238.639 482.866 235.887 482.522 234.649C477.911 218.141 468.76 203.902 461.878 188.425C461.19 186.843 460.571 184.642 458.438 185.192C456.305 185.742 456.786 187.943 457.13 189.594C460.16 205.487 462.023 221.58 462.704 237.745C461.121 238.226 460.915 236.782 460.365 235.956C459.933 235.09 459.186 234.422 458.278 234.09C457.369 233.757 456.368 233.785 455.479 234.168C453.552 235.062 454.584 237.057 454.997 238.226C456.167 241.734 453.896 244.142 452.933 247.1C451.735 253.989 452.207 261.066 454.309 267.736C455.406 272.237 455.915 276.861 455.823 281.493C454.653 278.329 453.552 275.164 452.245 272.069C451.557 270.349 451.075 267.873 448.667 268.286C446.258 268.699 447.221 271.312 447.359 272.963C447.841 281.717 449.484 290.368 452.245 298.689C455.685 309.214 454.516 320.22 456.029 331.088C449.537 323.121 444.208 314.274 440.203 304.811C437.45 298.345 434.354 292.017 431.257 285.689C430.432 284.107 429.331 281.974 427.06 282.387C424.789 282.8 425.271 285.07 424.858 286.583C424.17 289.197 423.757 291.811 423.138 295.044C420.523 292.911 418.871 289.816 414.949 290.779C412.885 291.329 412.678 288.853 412.128 287.271C410.595 281.743 409.468 276.11 408.756 270.418C408.756 268.699 408.756 266.841 406.004 269.111C403.251 271.381 404.352 268.079 403.733 267.254C401.6 264.365 402.288 258.174 398.366 258.449C395.682 258.449 396.439 264.709 395.476 268.148C392.99 274.21 391.1 280.499 389.833 286.927C389.088 286.053 388.538 285.03 388.217 283.928C387.897 282.825 387.815 281.667 387.975 280.53C387.975 272.069 381.92 265.878 379.718 258.243C379.718 257.142 378.686 256.111 377.309 256.179C376.64 256.271 376.012 256.553 375.499 256.992C374.987 257.431 374.612 258.009 374.419 258.656C372.974 262.164 371.736 265.534 370.291 269.593C369.278 265.975 368.632 262.265 368.364 258.518C368.02 256.799 368.364 254.253 365.543 254.185C362.721 254.116 363.203 256.386 362.515 257.899C361.827 259.412 361.552 260.307 360.588 262.508C359.623 258.479 359.344 254.316 359.762 250.195C359.762 248.613 360.382 246.343 358.111 245.93C355.84 245.518 355.909 247.787 355.29 249.094C348.806 262.483 343.175 276.268 338.431 290.366C338.074 292.322 337.167 294.135 335.816 295.594C335.266 286.033 334.715 276.815 334.302 267.529C333.752 260.248 333.752 252.936 334.302 245.655C335.403 234.58 343.11 226.189 347.17 216.214C348.135 214.681 348.731 212.945 348.91 211.143C349.089 209.34 348.846 207.521 348.202 205.828C328.023 233.765 304.55 259.17 278.29 281.493C280.836 276.678 282.694 273.376 284.345 269.937C285.997 266.497 286.065 265.809 281.593 264.159L289.093 253.428C290.607 251.296 290.882 249.645 287.648 248.888C286.822 248.888 285.378 247.925 285.378 247.512C285.928 239.946 281.73 244.761 279.666 245.518C272.234 248.407 265.904 253.772 256.752 256.73C264.252 245.517 277.808 242.972 283.038 230.453C270.583 233.067 265.009 244.83 254.206 249.301C243.764 254.837 233.858 261.331 224.617 268.699C225.099 265.19 227.37 262.508 225.099 260.926C222.828 259.344 221.314 261.889 218.699 262.783C221.383 255.423 222.484 249.026 229.916 243.867C245.362 234.422 259.736 223.329 272.785 210.78C295.011 187.531 316.893 163.937 330.449 134.015C332.994 129.206 335.916 124.606 339.188 120.257C342.298 115.955 346.677 112.732 351.711 111.04C364.166 105.8 377.646 103.448 391.14 104.161C407.192 104.466 423.21 102.592 438.758 98.5898C450.524 95.8383 454.86 98.5897 460.846 109.045C468.828 122.803 475.434 137.454 486.995 149.079C491.977 155.015 496.574 161.264 500.757 167.789C509.487 177.146 518.969 185.773 529.107 193.584C534.355 199.376 540.189 204.609 546.516 209.198C560.967 217.659 572.596 229.834 586.977 238.57C590.211 240.565 595.785 242.285 595.992 248.682C595.992 250.47 600.602 252.396 603.423 253.634C604.453 254.026 605.352 254.697 606.021 255.572C606.69 256.447 607.101 257.491 607.208 258.587C603.767 259 601.841 257.418 599.432 255.904Z" fill="#B3A155"/>
<defs>
<filter id="filter0_f_10_20700" x="0" y="0" width="875" height="366.144" filterUnits="userSpaceOnUse" color-interpolation-filters="sRGB">
<feFlood flood-opacity="0" result="BackgroundImageFix"/>
<feBlend mode="normal" in="SourceGraphic" in2="BackgroundImageFix" result="shape"/>
<feGaussianBlur stdDeviation="14" result="effect1_foregroundBlur_10_20700"/>
</filter>
<linearGradient id="paint0_linear_10_20700" x1="314.325" y1="-235.309" x2="266.423" y2="335.327" gradientUnits="userSpaceOnUse">
<stop offset="0.0236334" stop-color="#005761"/>
<stop offset="1" stop-color="#00343A"/>
</linearGradient>
</defs>
</svg>
