<svg width="194" height="75" viewBox="0 0 194 75" fill="none" xmlns="http://www.w3.org/2000/svg">
<path d="M163.746 53.5744C156.705 58.6059 148.062 60.8819 139.455 59.9715C137.101 60.1051 134.798 60.7098 132.682 61.7496C130.567 62.7894 128.681 64.2431 127.138 66.0247C124.252 68.4285 120.855 70.1425 117.206 71.0365C113.558 71.9305 109.753 71.9808 106.082 71.1837C98.6426 70.0117 91.0381 70.4575 83.787 72.4906C81.0375 73.8089 77.9667 74.3089 74.9409 73.9308C71.9151 73.5527 69.0619 72.3126 66.7217 70.3583C75.5295 73.0409 83.3051 68.9137 91.5625 67.6068C97.0925 67.8939 102.635 67.3608 108.008 66.0247C109.935 65.1305 108.008 70.4958 111.999 69.6016C115.785 69.3069 119.444 68.1035 122.665 66.0934C123.973 65.0617 125.349 64.0298 126.656 62.8605C128.922 60.3168 131.825 58.4218 135.066 57.3701C138.307 56.3184 141.769 56.1479 145.098 56.8761C150.636 57.6198 156.25 56.217 160.787 52.9553C161.957 52.2675 163.883 49.9287 163.952 53.7807L163.746 53.5744Z" fill="#B3A155"/>
<path d="M134.913 18.9754C131.816 18.2876 131.61 15.6049 130.853 13.4725C129.917 11.3217 128.537 9.39293 126.803 7.81253C125.07 6.23214 123.021 5.03583 120.793 4.30194C118.564 3.56806 116.206 3.31324 113.872 3.55411C111.538 3.79497 109.282 4.52606 107.25 5.69959C106.548 6.30302 105.722 6.7451 104.83 6.99469C103.939 7.24427 103.003 7.29533 102.089 7.14415C98.8609 6.35915 95.4617 6.69394 92.4485 8.09372C89.4354 9.4935 86.9875 11.8752 85.5061 14.8482C84.8827 15.8152 83.9612 16.5531 82.8811 16.9502C81.8011 17.3473 80.621 17.3822 79.5193 17.0494C72.6382 14.6419 69.1978 18.7002 66.1701 23.1025C65.3957 24.6043 64.1681 25.8244 62.6613 26.5898C61.1546 27.3553 59.4452 27.6273 57.7751 27.3674C55.6755 27.1682 53.5573 27.4078 51.5553 28.0709C49.5533 28.7341 47.7112 29.8063 46.146 31.2194C44.4327 32.5692 42.501 33.616 40.4346 34.3148C42.0374 31.4089 44.4034 28.9955 47.2773 27.3348C50.1512 25.6741 53.4239 24.8292 56.7428 24.8911C58.4303 25.0821 60.1362 24.757 61.6351 23.9587C63.1339 23.1604 64.3551 21.9265 65.1378 20.4199C66.2587 18.4655 67.8426 16.8162 69.7503 15.6168C71.658 14.4174 73.8311 13.7047 76.0788 13.5412C79.6863 13.3559 83.1167 11.921 85.7812 9.48286C87.7977 7.56803 90.1738 6.07154 92.7721 5.0798C95.3705 4.08806 98.1397 3.62075 100.92 3.70483C103.019 3.66665 105.085 3.17377 106.975 2.26027C110.245 0.962741 113.775 0.454688 117.278 0.777397C120.781 1.10011 124.159 2.2445 127.137 4.11753C131.059 6.24991 134.981 8.3823 134.018 14.0228C133.055 15.8112 135.669 16.7055 134.913 18.9754Z" fill="#B3A155"/>
<path d="M163.745 53.6418C167.942 53.6418 172.14 53.6418 176.269 53.6418C178.377 53.7094 180.472 53.2917 182.393 52.4211C184.314 51.5504 186.009 50.25 187.347 48.6204C191.957 42.7048 191.338 41.329 185.214 37.2018C179.95 33.0297 173.342 30.9257 166.635 31.2862C164.777 31.2862 163.607 29.9793 162.093 29.1538C156.795 26.1272 149.776 26.6087 145.854 20.3492C144.959 18.9734 141.037 19.4549 138.078 19.0422C139.933 17.4875 142.328 16.7304 144.739 16.9366C147.151 17.1429 149.382 18.2957 150.946 20.1428C155.989 24.6078 162.282 27.4171 168.974 28.1908C175.028 28.494 180.852 30.6023 185.696 34.2441C186.865 35.2758 188.999 37.6833 190.375 35.1382C191.751 32.5931 188.31 32.7995 186.865 31.6989C191.476 31.6989 194.228 34.8631 193.746 40.366C193.722 43.4509 192.779 46.4587 191.039 49.0065C189.299 51.5544 186.84 53.5271 183.975 54.6736C180.878 56.3706 177.377 57.1904 173.848 57.045C170.32 56.8995 166.898 55.7942 163.951 53.8481L163.745 53.6418Z" fill="#B3A155"/>
<path d="M67.2711 66.9183C58.6697 72.9715 51.0316 75.9293 41.6733 70.564C37.0629 67.9501 31.1452 70.564 25.8468 70.564C21.174 70.3586 16.5998 69.1532 12.4331 67.029C8.26639 64.9049 4.60411 61.9115 1.69395 58.2511C0.940979 57.6312 0.44122 56.757 0.28908 55.7938C0.13694 54.8306 0.342989 53.8451 0.868247 53.0234C3.13902 59.4893 9.60732 60.7275 13.8048 64.6483C15.6614 66.2642 17.9176 67.3526 20.3382 67.8003C22.7588 68.2479 25.2551 68.0383 27.5671 67.1934C33.0353 65.6364 38.8975 66.304 43.8753 69.0506C46.315 70.3443 49.0477 70.9861 51.8085 70.9138C54.5693 70.8415 57.2645 70.0576 59.6331 68.6379C60.7129 67.8289 61.9518 67.2574 63.2682 66.961C64.5846 66.6646 65.9486 66.6501 67.2711 66.9183Z" fill="#B3A155"/>
</svg>
